<svg xmlns="http://www.w3.org/2000/svg" viewBox="0 0 640 360"><defs><linearGradient id="b" x2="0" y2="1"><stop stop-color="#111426"/><stop offset="1" stop-color="#2b1830"/></linearGradient></defs><rect width="640" height="360" fill="url(#b)"/><g fill="#2b2034" stroke="#5b4565"><rect x="35" y="92" width="48" height="160"/><rect x="105" y="65" width="55" height="195"/><rect x="185" y="100" width="42" height="155"/><rect x="245" y="58" width="52" height="200"/><rect x="325" y="85" width="44" height="170"/><rect x="400" y="62" width="52" height="195"/><rect x="490" y="95" width="46" height="160"/><rect x="555" y="72" width="40" height="185"/></g><path d="M0 290C125 245 235 240 340 195S505 135 640 175" fill="none" stroke="#7b446f" stroke-width="13"/><path d="M430 0C425 110 420 220 415 360" fill="none" stroke="#6b3657" stroke-width="11"/><rect x="245" y="118" width="140" height="122" rx="4" fill="#381d31" stroke="#bd5d88"/><rect x="265" y="138" width="100" height="30" fill="#ff577f" opacity=".45"/><polygon points="270,198 360,198 347,231 284,231" fill="#efbc73" opacity=".58"/><rect x="505" y="96" width="24" height="104" fill="#a9326e" opacity=".5"/><g fill="#ff78b4"><circle cx="170" cy="250" r="4"/><circle cx="210" cy="265" r="4"/><circle cx="460" cy="240" r="4"/></g><g stroke="#b9ddf8" opacity=".10"><path d="M65 15l-4 18M170 35l-4 18M280 12l-4 18M390 30l-4 18M515 15l-4 18M605 35l-4 18"/></g></svg>