<svg xmlns="http://www.w3.org/2000/svg" viewBox="0 0 640 360"><defs><linearGradient id="b" x2="0" y2="1"><stop stop-color="#0d1b27"/><stop offset="1" stop-color="#19343b"/></linearGradient></defs><rect width="640" height="360" fill="url(#b)"/><ellipse cx="125" cy="90" rx="85" ry="40" fill="#174356"/><g fill="#234b3c"><circle cx="60" cy="85" r="15"/><circle cx="95" cy="125" r="14"/><circle cx="155" cy="145" r="16"/><circle cx="235" cy="120" r="13"/><circle cx="520" cy="90" r="15"/><circle cx="570" cy="150" r="16"/><circle cx="470" cy="240" r="14"/></g><g fill="#1f3546" stroke="#496175"><rect x="55" y="165" width="52" height="44"/><rect x="120" y="180" width="46" height="50"/><rect x="190" y="150" width="62" height="58"/><rect x="285" y="190" width="58" height="48"/><rect x="365" y="160" width="50" height="54"/><rect x="455" y="185" width="62" height="50"/><rect x="535" y="175" width="44" height="55"/></g><path d="M0 270C140 225 285 235 430 190S560 145 640 165" fill="none" stroke="#879ba6" stroke-width="12"/><path d="M385 0L410 360" fill="none" stroke="#667b88" stroke-width="10"/><rect x="205" y="155" width="82" height="48" fill="#59382f" stroke="#d5a46b"/><polygon points="200,155 246,125 292,155" fill="#372630"/><rect x="216" y="168" width="60" height="20" fill="#ffc779" opacity=".55"/><g stroke="#b9ddf8" opacity=".12"><path d="M70 20l-4 18M170 35l-4 18M270 15l-4 18M365 40l-4 18M490 20l-4 18M590 35l-4 18"/></g></svg>